<svg xmlns="http://www.w3.org/2000/svg" viewBox="0 0 200 200" width="200" height="200">
  <!-- 고양이 몸통 -->
  <ellipse cx="100" cy="120" rx="45" ry="60" fill="#ff9800" stroke="#e65100" stroke-width="2"/>

  <!-- 고양이 머리 -->
  <circle cx="100" cy="70" r="40" fill="#ff9800" stroke="#e65100" stroke-width="2"/>

  <!-- 왼쪽 귀 -->
  <path d="M 70 50 L 60 20 L 85 45 Z" fill="#ff9800" stroke="#e65100" stroke-width="2"/>
  <path d="M 70 50 L 65 30 L 80 48 Z" fill="#ffb74d"/>

  <!-- 오른쪽 귀 -->
  <path d="M 130 50 L 140 20 L 115 45 Z" fill="#ff9800" stroke="#e65100" stroke-width="2"/>
  <path d="M 130 50 L 135 30 L 120 48 Z" fill="#ffb74d"/>

  <!-- 왼쪽 눈 -->
  <ellipse cx="85" cy="65" rx="8" ry="12" fill="#333"/>
  <ellipse cx="87" cy="62" rx="3" ry="4" fill="#fff"/>

  <!-- 오른쪽 눈 -->
  <ellipse cx="115" cy="65" rx="8" ry="12" fill="#333"/>
  <ellipse cx="117" cy="62" rx="3" ry="4" fill="#fff"/>

  <!-- 코 -->
  <path d="M 100 78 L 95 85 L 105 85 Z" fill="#ff6090"/>

  <!-- 입 -->
  <path d="M 100 85 Q 90 90 85 88" stroke="#333" stroke-width="2" fill="none" stroke-linecap="round"/>
  <path d="M 100 85 Q 110 90 115 88" stroke="#333" stroke-width="2" fill="none" stroke-linecap="round"/>

  <!-- 수염 왼쪽 -->
  <line x1="50" y1="70" x2="70" y2="68" stroke="#333" stroke-width="1.5"/>
  <line x1="50" y1="75" x2="70" y2="75" stroke="#333" stroke-width="1.5"/>
  <line x1="50" y1="80" x2="70" y2="82" stroke="#333" stroke-width="1.5"/>

  <!-- 수염 오른쪽 -->
  <line x1="150" y1="70" x2="130" y2="68" stroke="#333" stroke-width="1.5"/>
  <line x1="150" y1="75" x2="130" y2="75" stroke="#333" stroke-width="1.5"/>
  <line x1="150" y1="80" x2="130" y2="82" stroke="#333" stroke-width="1.5"/>

  <!-- 왼쪽 팔 -->
  <ellipse cx="65" cy="125" rx="12" ry="30" fill="#ff9800" stroke="#e65100" stroke-width="2"/>

  <!-- 오른쪽 팔 -->
  <ellipse cx="135" cy="125" rx="12" ry="30" fill="#ff9800" stroke="#e65100" stroke-width="2"/>

  <!-- 왼쪽 발 -->
  <ellipse cx="85" cy="175" rx="15" ry="12" fill="#ff9800" stroke="#e65100" stroke-width="2"/>

  <!-- 오른쪽 발 -->
  <ellipse cx="115" cy="175" rx="15" ry="12" fill="#ff9800" stroke="#e65100" stroke-width="2"/>

  <!-- 꼬리 -->
  <path d="M 140 130 Q 170 120 180 140 Q 185 160 170 165"
        stroke="#ff9800" stroke-width="18" fill="none" stroke-linecap="round"/>
  <path d="M 140 130 Q 170 120 180 140 Q 185 160 170 165"
        stroke="#e65100" stroke-width="2" fill="none" stroke-linecap="round"/>
</svg>
